<svg width="100" height="100" viewBox="0 0 100 100" fill="none" xmlns="http://www.w3.org/2000/svg">
<path d="M55 15C55 13.2671 55.8973 11.6578 57.3713 10.7467C58.8454 9.83571 60.6861 9.75289 62.2361 10.5279L82.2361 20.5279C83.93 21.3748 85 23.1061 85 25V53.8197C85 55.5525 84.1027 57.1619 82.6287 58.0729C81.1546 58.9839 79.3139 59.0668 77.7639 58.2918L57.7639 48.2918C56.07 47.4448 55 45.7135 55 43.8197V15Z" fill="#E12B3E"/>
<path d="M76.0557 68.618C77.7496 69.465 78.8197 71.1963 78.8197 73.0902C78.8197 74.984 77.7496 76.7153 76.0557 77.5623L52.2361 89.4721C50.8284 90.176 49.1716 90.176 47.7639 89.4721L23.9443 77.5623C22.2504 76.7153 21.1803 74.984 21.1803 73.0902C21.1803 71.1963 22.2504 69.465 23.9443 68.618L47.7639 56.7082C49.1716 56.0044 50.8284 56.0044 52.2361 56.7082L76.0557 68.618Z" fill="#E12B3E"/>
<path d="M22.2361 58.2918C20.6861 59.0668 18.8454 58.9839 17.3713 58.0729C15.8973 57.1619 15 55.5525 15 53.8197V25C15 23.1061 16.07 21.3748 17.7639 20.5279L37.7639 10.5279C39.3139 9.75289 41.1546 9.83571 42.6287 10.7467C44.1027 11.6578 45 13.2671 45 15V43.8197C45 45.7135 43.93 47.4448 42.2361 48.2918L22.2361 58.2918Z" fill="#E12B3E"/>
</svg>
