<svg width="33" height="32" viewBox="0 0 33 32" fill="none" xmlns="http://www.w3.org/2000/svg">
<rect x="0.5" width="32" height="32" rx="5" fill="#FAE0E1"/>
<path fill-rule="evenodd" clip-rule="evenodd" d="M12.1651 7.50006C9.63506 7.50006 8.00006 9.23306 8.00006 11.9161V20.0841C8.00006 22.7671 9.63506 24.5001 12.1651 24.5001H20.8331C23.3641 24.5001 25.0001 22.7671 25.0001 20.0841V11.9161C25.0001 9.23306 23.3641 7.50006 20.8341 7.50006H12.1651ZM20.833 26H12.165C8.776 26 6.5 23.622 6.5 20.084V11.916C6.5 8.378 8.776 6 12.165 6H20.834C24.223 6 26.5 8.378 26.5 11.916V20.084C26.5 23.622 24.223 26 20.833 26Z" fill="#131126"/>
<path fill-rule="evenodd" clip-rule="evenodd" d="M15.3134 19.1229C15.1224 19.1229 14.9294 19.0499 14.7834 18.9029L12.4094 16.5299C12.1164 16.2369 12.1164 15.7629 12.4094 15.4699C12.7024 15.1769 13.1764 15.1769 13.4694 15.4699L15.3134 17.3119L19.5294 13.0969C19.8224 12.8039 20.2964 12.8039 20.5894 13.0969C20.8824 13.3899 20.8824 13.8639 20.5894 14.1569L15.8434 18.9029C15.6974 19.0499 15.5054 19.1229 15.3134 19.1229Z" fill="#131126"/>
</svg>
